<mxfile host="app.diagrams.net" modified="2023-10-01T13:06:10.153Z" agent="Mozilla/5.0 (Windows NT 10.0; Win64; x64) AppleWebKit/537.36 (KHTML, like Gecko) Chrome/117.0.0.0 Safari/537.36" version="21.1.5" etag="942nbNfHP0ki5_2cAZ3P" type="github">
  <diagram name="Trang-1" id="8Aq3bWht7YkTZYnyVy_7">
    <mxGraphModel>
      <root>
        <mxCell id="0" />
        <mxCell id="1" parent="0" />
      </root>
    </mxGraphModel>
  </diagram>
</mxfile>
